<svg xmlns="http://www.w3.org/2000/svg" aria-labelledby="title desc" role="img" viewBox="0 0 800 200"><title id="title">Firefly Grove</title><desc id="desc">An animated firefly screensaver for television with no ads, analytics, or tracking.</desc><defs><linearGradient id="dawn" x2="0" y2="1"><stop stop-color="#fff"/><stop offset="1" stop-color="#f4f7ed"/></linearGradient><radialGradient id="glow"><stop stop-color="#fff5ce"/><stop offset=".2" stop-color="#f3bc3c" stop-opacity=".95"/><stop offset="1" stop-color="#78a83c" stop-opacity="0"/></radialGradient></defs><rect width="800" height="200" fill="url(#dawn)" stroke="#e5e7eb" rx="16"/><g fill="url(#glow)"><circle cx="625" cy="81" r="53"/><circle cx="704" cy="132" r="32"/><circle cx="564" cy="142" r="25"/></g><g fill="#875b0b"><circle cx="625" cy="81" r="3"/><circle cx="704" cy="132" r="2.5"/><circle cx="564" cy="142" r="2"/></g><path fill="none" stroke="#6b8f37" stroke-opacity=".7" stroke-width="2" d="M625 86q-18 23-8 45m18-44q19 24 8 44M704 136q-14 18-5 33m14-33q15 17 7 33M564 146q-11 15-4 26m13-26q10 15 5 26"/><path fill="#e6efdf" d="M0 178q115-22 230 0t230-2t340 0v24H0Z"/><text x="40" y="78" fill="#0f172a" font-family="system-ui,-apple-system,'Segoe UI',sans-serif" font-size="40" font-weight="700" letter-spacing="-.5">Firefly Grove</text><text x="42" y="108" fill="#64748b" font-family="system-ui,-apple-system,'Segoe UI',sans-serif" font-size="14">Animated fireflies for Fire TV, Android TV and Google TV</text><g font-family="system-ui,-apple-system,'Segoe UI',sans-serif" font-size="10" font-weight="500" text-anchor="middle"><rect width="115" height="22" x="40" y="130" fill="#f0fdf4" stroke="#22c55e" stroke-width=".8" rx="11"/><text x="97" y="144" fill="#166534">Animated scene</text><rect width="132" height="22" x="163" y="130" fill="#fffbeb" stroke="#f59e0b" stroke-width=".8" rx="11"/><text x="229" y="144" fill="#b45309">No ads or tracking</text></g></svg>